<svg width="101" height="100" viewBox="0 0 101 100" fill="none" xmlns="http://www.w3.org/2000/svg">
<path d="M51.5445 5.47749L59.1884 13.6244C60.5951 15.1237 62.6714 15.7984 64.6908 15.4123L75.6634 13.3142C76.7975 13.0974 77.8792 13.8832 78.0234 15.0288L79.4188 26.1128C79.6756 28.1526 80.9588 29.9188 82.8194 30.7934L92.9297 35.5456C93.9747 36.0368 94.3878 37.3083 93.8311 38.3199L88.445 48.1072C87.4538 49.9084 87.4538 52.0916 88.445 53.8928L93.8311 63.6801C94.3878 64.6917 93.9747 65.9632 92.9297 66.4544L82.8194 71.2066C80.9588 72.0812 79.6756 73.8474 79.4188 75.8872L78.0234 86.9712C77.8792 88.1168 76.7975 88.9026 75.6634 88.6858L64.6908 86.5878C62.6715 86.2017 60.5951 86.8763 59.1884 88.3756L51.5445 96.5225C50.7544 97.3646 49.4175 97.3646 48.6274 96.5225L40.9835 88.3756C39.5768 86.8763 37.5004 86.2017 35.4811 86.5878L24.5084 88.6858C23.3743 88.9026 22.2927 88.1168 22.1485 86.9712L20.7531 75.8872C20.4963 73.8474 19.213 72.0812 17.3524 71.2066L7.24217 66.4544C6.1972 65.9632 5.78406 64.6917 6.34075 63.6801L11.7268 53.8928C12.718 52.0916 12.718 49.9084 11.7268 48.1072L6.34075 38.3199C5.78406 37.3083 6.1972 36.0368 7.24217 35.5456L17.3524 30.7934C19.213 29.9188 20.4963 28.1526 20.7531 26.1128L22.1485 15.0288C22.2927 13.8832 23.3743 13.0974 24.5084 13.3142L35.4811 15.4122C37.5004 15.7984 39.5768 15.1237 40.9835 13.6244L48.6274 5.47749C49.4175 4.63544 50.7544 4.63544 51.5445 5.47749Z" fill="url(#paint0_linear_652_25)" stroke="#2F80ED" stroke-width="4" stroke-linejoin="round"/>
<defs>
<linearGradient id="paint0_linear_652_25" x1="50.0859" y1="1" x2="50.086" y2="101" gradientUnits="userSpaceOnUse">
<stop offset="0.15625" stop-color="#FF83BE"/>
<stop offset="0.567708" stop-color="#FF6687"/>
<stop offset="1" stop-color="#FF6A6A"/>
</linearGradient>
</defs>
</svg>
