<svg width="101" height="100" viewBox="0 0 101 100" fill="none" xmlns="http://www.w3.org/2000/svg">
<path d="M42.7939 26.5706L50.0859 5.98884L57.3779 26.5706C57.9726 28.2489 59.8896 29.043 61.4968 28.2767L81.2065 18.8794L71.8092 38.5891C71.043 40.1963 71.837 42.1134 73.5154 42.708L94.0971 50L73.5154 57.292C71.837 57.8866 71.043 59.8037 71.8092 61.4109L81.2065 81.1206L61.4968 71.7233C59.8896 70.957 57.9725 71.7511 57.3779 73.4294L50.0859 94.0112L42.7939 73.4294C42.1993 71.7511 40.2823 70.957 38.6751 71.7233L18.9654 81.1206L28.3626 61.4109C29.1289 59.8037 28.3348 57.8866 26.6565 57.292L6.07478 50L26.6565 42.708C28.3348 42.1134 29.1289 40.1963 28.3626 38.5891L18.9654 18.8794L38.6751 28.2767C40.2823 29.043 42.1993 28.2489 42.7939 26.5706Z" fill="url(#paint0_linear_652_45)" stroke="#FFCA00" stroke-width="4" stroke-linejoin="round"/>
<defs>
<linearGradient id="paint0_linear_652_45" x1="50.0859" y1="0" x2="50.086" y2="100" gradientUnits="userSpaceOnUse">
<stop stop-color="#FFFDEC"/>
<stop offset="0.75" stop-color="#FFF799"/>
</linearGradient>
</defs>
</svg>
