<svg width="101" height="100" viewBox="0 0 101 100" fill="none" xmlns="http://www.w3.org/2000/svg">
<path d="M42.1836 25.2994L50.0859 5.41528L57.9883 25.2994C58.6127 26.8706 60.4116 27.6156 61.9641 26.9462L81.6121 18.4738L73.1398 38.1218C72.4703 39.6744 73.2154 41.4732 74.7866 42.0976L94.6707 50L74.7866 57.9024C73.2154 58.5268 72.4703 60.3256 73.1398 61.8782L81.6121 81.5261L61.9641 73.0538C60.4116 72.3843 58.6127 73.1294 57.9883 74.7006L50.0859 94.5847L42.1836 74.7006C41.5591 73.1294 39.7603 72.3843 38.2078 73.0538L18.5598 81.5262L27.0321 61.8782C27.7016 60.3256 26.9565 58.5268 25.3853 57.9024L5.50122 50L25.3853 42.0976C26.9565 41.4732 27.7016 39.6744 27.0321 38.1218L18.5598 18.4738L38.2078 26.9462C39.7603 27.6156 41.5591 26.8706 42.1836 25.2994Z" fill="url(#paint0_linear_652_31)" stroke="#2F80ED" stroke-width="4" stroke-linejoin="round"/>
<defs>
<linearGradient id="paint0_linear_652_31" x1="50.0859" y1="0" x2="50.0859" y2="100" gradientUnits="userSpaceOnUse">
<stop stop-color="#E0E0E0"/>
<stop offset="0.291667" stop-color="#D39595"/>
<stop offset="0.645833" stop-color="#AF6868"/>
</linearGradient>
</defs>
</svg>
