<svg width="101" height="100" viewBox="0 0 101 100" fill="none" xmlns="http://www.w3.org/2000/svg">
<path d="M50.0859 0C56.9811 0 65.1892 9.25689 65.1892 9.25689C65.1892 9.25689 77.3554 7.5062 82.6374 11.9925C87.9195 16.4788 88.3288 28.9105 88.3288 28.9105C88.3288 28.9105 98.7604 35.4852 99.9577 42.3585C101.155 49.2319 93.5741 59.0215 93.5741 59.0215C93.5741 59.0215 97.39 70.8452 93.9424 76.8895C90.4948 82.9339 78.4708 85.5007 78.4708 85.5007C78.4708 85.5007 73.8856 97.041 67.4062 99.4281C60.9269 101.815 50.0859 95.9581 50.0859 95.9581C50.0859 95.9581 39.245 101.815 32.7657 99.4281C26.2863 97.0409 21.7011 85.5007 21.7011 85.5007C21.7011 85.5007 9.67706 82.9339 6.22946 76.8895C2.78186 70.8452 6.59778 59.0215 6.59778 59.0215C6.59778 59.0215 -0.983148 49.2319 0.21419 42.3585C1.41153 35.4852 11.8431 28.9105 11.8431 28.9105C11.8431 28.9105 12.2524 16.4788 17.5345 11.9925C22.8165 7.5062 34.9827 9.25689 34.9827 9.25689C34.9827 9.25689 43.1907 0 50.0859 0Z" fill="#B9D9FF"/>
<g style="mix-blend-mode:color-burn">
<path d="M80.4561 77.9895C85.614 59.6897 84.7902 37.4815 84.7902 37.4815C91.1766 44.2532 95.0791 65.9315 80.4561 77.9895Z" fill="#A5A5A5"/>
</g>
<g style="mix-blend-mode:color-burn">
<path d="M29.8975 83.6453C48.4024 87.0055 70.1495 83.9499 70.1495 83.9499C64.1334 91.0604 43.2157 97.1638 29.8975 83.6453Z" fill="#A5A5A5"/>
</g>
<g style="mix-blend-mode:color-burn">
<path d="M14.2256 37.3776C13.9627 56.4057 20.4815 77.6274 20.4815 77.6274C12.5711 72.7766 3.21655 52.8794 14.2256 37.3776Z" fill="#A5A5A5"/>
</g>
</svg>
